<svg xmlns="http://www.w3.org/2000/svg" xmlns:xlink="http://www.w3.org/1999/xlink" width="1400" zoomAndPan="magnify" viewBox="0 0 1050 1049.999947" height="1400" preserveAspectRatio="xMidYMid meet" version="1.0"><defs><clipPath id="07aa4275f2"><path d="M 341 250.230469 L 733.863281 250.230469 L 733.863281 661.980469 L 341 661.980469 Z M 341 250.230469 " clip-rule="nonzero"/></clipPath><clipPath id="99714da9e5"><path d="M 316.113281 392 L 347 392 L 347 575 L 316.113281 575 Z M 316.113281 392 " clip-rule="nonzero"/></clipPath><clipPath id="ee19141d78"><path d="M 190 661.691406 L 856 661.691406 L 856 799 L 190 799 Z M 190 661.691406 " clip-rule="nonzero"/></clipPath></defs><g clip-path="url(#07aa4275f2)"><path fill="#adff00" d="M 522.617188 250.222656 C 525.234375 252.6875 527.949219 255 530.382812 257.582031 C 535.976562 263.507812 542.574219 268.292969 548.515625 273.78125 C 552.75 277.695312 556.550781 282.507812 559.199219 287.617188 C 566.714844 302.121094 573.539062 316.980469 580.628906 331.707031 C 581.050781 332.585938 581.585938 333.472656 581.75 334.410156 C 583.285156 343.226562 588.1875 350.796875 590.859375 359.210938 C 592.917969 365.707031 595.792969 371.945312 598.390625 378.519531 L 603.695312 378.519531 L 603.792969 378.332031 L 603.777344 378.316406 L 603.878906 378.1875 C 603.585938 377.773438 603.46875 377.359375 603.386719 376.886719 C 603.386719 376.449219 603.886719 376.007812 604.164062 375.570312 C 604.394531 376 604.882812 376.5 604.796875 376.851562 C 604.636719 377.382812 604.214844 377.765625 603.878906 378.1875 L 604.042969 378.519531 C 603.964844 378.460938 603.886719 378.402344 603.808594 378.34375 L 604.042969 378.519531 L 603.695312 378.519531 C 600.398438 384.214844 603.1875 388.652344 606.847656 393.214844 C 610.007812 392.058594 611.085938 389.601562 611.855469 387.164062 C 614.886719 377.535156 619.589844 368.59375 622.503906 358.832031 C 625.546875 348.640625 628.449219 338.035156 635.320312 328.859375 C 638.839844 328.101562 642.648438 327.285156 646.195312 326.523438 C 651.546875 321.183594 651.730469 312.363281 659.28125 308.464844 C 660.644531 311.269531 661.59375 313.609375 662.878906 315.75 C 664.050781 317.707031 665.613281 319.417969 666.949219 321.28125 C 676.109375 334.046875 680.519531 348.730469 684.019531 363.773438 C 684.09375 364.089844 684.054688 364.4375 684.15625 364.742188 C 690.007812 382.519531 691.253906 401.292969 695.988281 419.320312 C 698.222656 427.824219 700.246094 436.394531 702.203125 444.964844 C 704.300781 454.152344 706.335938 463.527344 709.359375 472.417969 C 712.703125 482.253906 714.53125 492.699219 720.015625 501.839844 C 721.789062 504.789062 722.261719 508.515625 723.324219 511.871094 C 726.953125 513.117188 729.847656 511.675781 732.894531 510.117188 C 733.71875 512.542969 731.207031 513.226562 730.574219 514.789062 C 729.972656 516.28125 729.542969 517.839844 728.914062 519.75 C 730.375 520.003906 731.492188 520.195312 733.117188 520.476562 C 733.265625 521.90625 733.863281 523.578125 733.515625 525.023438 C 731.992188 531.371094 730.195312 537.648438 728.503906 543.957031 C 727.496094 547.714844 725.652344 551.488281 725.710938 555.230469 C 725.792969 560.296875 723.75 563.894531 720.898438 567.636719 C 708.5 583.90625 694.445312 598.277344 676.1875 608.074219 C 667.542969 612.710938 659.054688 617.640625 650.417969 622.289062 C 648.140625 623.515625 645.632812 624.550781 643.109375 625.046875 C 630.867188 627.449219 619.503906 632.625 607.589844 636.058594 C 594.726562 639.769531 581.949219 643.777344 569.117188 647.589844 C 566.925781 648.238281 564.617188 648.996094 562.394531 648.914062 C 558.003906 648.757812 554.199219 649.929688 550.160156 651.628906 C 545.714844 653.5 540.703125 654.101562 535.894531 655.015625 C 526.253906 656.84375 516.609375 658.703125 506.914062 660.183594 C 497.140625 661.679688 487.367188 661.441406 477.804688 658.914062 C 476.5625 656.824219 477.285156 653.890625 473.480469 653.433594 C 465.050781 652.417969 456.714844 650.660156 448.328125 649.269531 C 441.875 648.199219 435.40625 647.203125 428.941406 646.210938 C 426.039062 645.769531 423.113281 645.109375 420.890625 648.078125 C 420.460938 648.65625 419.121094 648.816406 418.238281 648.742188 C 413.675781 648.347656 409.097656 647.996094 404.578125 647.289062 C 399.097656 646.429688 393.640625 645.355469 388.226562 644.140625 C 383.089844 642.988281 378.125 641.355469 374.253906 637.449219 C 370.644531 633.804688 370.777344 631.691406 375.507812 626.390625 C 378.246094 627.371094 381.210938 628.4375 384.316406 629.554688 C 380.316406 623.890625 380.316406 623.890625 379.347656 615.457031 C 384.066406 611.242188 388.613281 606.597656 386.015625 598.34375 C 388.722656 598.625 390.582031 598.722656 392.40625 599.015625 C 403.074219 600.738281 413.703125 602.699219 424.402344 604.1875 C 431.59375 605.191406 431.632812 604.902344 437.292969 611.28125 C 435.523438 615.160156 431.109375 612.25 428.863281 614.277344 C 428.03125 616.34375 429.339844 616.945312 430.496094 617.238281 C 433.53125 618.011719 437.242188 617.117188 438.90625 621.035156 C 439.085938 621.460938 440.054688 621.765625 440.65625 621.761719 C 447.503906 621.710938 454.359375 621.734375 461.195312 621.375 C 462.785156 621.125 463.953125 619.855469 465.199219 618.925781 L 465.140625 618.917969 L 465.066406 618.945312 L 465.015625 618.941406 L 465.269531 618.871094 L 465.273438 618.871094 L 465.199219 618.925781 C 479.382812 621.996094 493.871094 623.050781 508.355469 623.113281 C 501.992188 618.324219 502 618.21875 499.300781 618.015625 C 495.816406 617.75 492.3125 617.671875 486.691406 617.417969 C 489.296875 616.539062 491.90625 615.65625 494.503906 614.753906 L 494.535156 614.574219 C 493.804688 613.476562 493.113281 612.410156 494.953125 612.148438 L 494.980469 611.96875 C 493.683594 611.339844 492.378906 610.765625 491.003906 610.351562 C 489.574219 610.027344 488.019531 610.226562 484.953125 607.925781 C 494.367188 608.222656 501.589844 608.316406 508.792969 608.742188 C 512.585938 609.027344 515.632812 608.71875 518.980469 606.824219 L 518.988281 606.796875 C 519 606.808594 518.996094 606.800781 519 606.8125 C 519 606.804688 519 606.808594 519.003906 606.804688 L 519.023438 606.8125 L 519 606.816406 L 518.980469 606.824219 C 518.421875 608.585938 518.699219 607.710938 518.148438 609.449219 C 502.683594 611.042969 510.398438 610.25 495.003906 611.835938 C 495.066406 611.902344 495.03125 611.863281 495.117188 611.949219 L 495.265625 612.097656 L 495.261719 612.097656 L 495.265625 612.101562 L 494.953125 612.148438 C 494.683594 613.761719 494.820312 612.953125 494.535156 614.574219 L 494.625 614.714844 C 494.660156 614.675781 494.457031 614.925781 494.480469 614.898438 L 494.480469 614.894531 L 494.457031 614.925781 C 522.007812 614.546875 548.652344 608.800781 574.957031 601.15625 C 581.808594 599.164062 588.546875 596.78125 595.296875 594.464844 C 598.621094 593.324219 601.667969 591.414062 605.523438 593.046875 C 606.886719 593.246094 608.46875 591.898438 609.699219 591.3125 L 609.699219 591.207031 C 609.742188 591.238281 609.714844 591.214844 609.78125 591.277344 L 609.78125 591.28125 C 609.785156 591.28125 609.785156 591.28125 609.785156 591.28125 C 609.78125 591.28125 609.777344 591.28125 609.773438 591.277344 L 609.699219 591.3125 L 609.699219 597.285156 C 611.917969 596.851562 613.808594 596.667969 615.578125 596.101562 C 621.148438 594.320312 626.65625 592.332031 632.230469 590.5625 C 634.074219 589.980469 636.304688 589.066406 637.917969 589.609375 C 643.125 591.355469 647.4375 588.316406 651.277344 588.066406 C 655.109375 586.304688 650.871094 583.4375 653.472656 581.769531 C 655.070312 580.746094 656.054688 578.800781 657.601562 577.65625 C 659.402344 576.324219 661.515625 575.414062 664.191406 573.933594 C 661.519531 572.8125 658.53125 576.335938 656.550781 573.757812 C 656.714844 572.949219 656.429688 571.921875 657.03125 571.265625 C 658.898438 569.988281 660.96875 568.996094 662.984375 567.949219 C 668.488281 565.09375 673.953125 562.167969 679.53125 559.472656 C 682.132812 558.214844 684.980469 556.542969 687.679688 556.605469 C 693 556.722656 696.328125 554.65625 698.597656 550.074219 C 699.101562 549.054688 700.335938 548.402344 701.9375 546.941406 C 697.511719 546.523438 694.867188 548.585938 692.058594 549.886719 C 677.28125 556.730469 662.617188 563.8125 647.765625 570.484375 C 641.917969 573.066406 635.796875 574.953125 629.761719 577.039062 L 629.65625 577.324219 L 629.453125 577.144531 L 629.761719 577.039062 C 630.054688 576.339844 630.144531 575.503906 630.789062 575.035156 C 633.429688 573.734375 636.171875 572.625 638.925781 571.578125 C 657.03125 564.714844 673.8125 555.050781 691.261719 546.808594 C 692.621094 546.164062 693.691406 544.902344 694.542969 544.207031 C 694.542969 543.1875 694.683594 542.738281 694.523438 542.554688 C 686.976562 533.894531 683.710938 523.300781 680.800781 512.519531 C 677.394531 499.886719 673.34375 487.394531 670.585938 474.621094 C 667.816406 461.78125 664.035156 449.273438 660.464844 436.671875 C 659.226562 432.296875 658.800781 427.664062 658.308594 423.113281 C 657.53125 415.945312 656.375 408.933594 654.207031 401.984375 C 652.074219 395.140625 651.09375 387.9375 649.632812 380.882812 C 648.90625 377.378906 648.949219 377.367188 644.546875 374.722656 C 644.054688 375.09375 643.257812 375.382812 643.125 375.855469 C 642.34375 378.652344 642.390625 381.921875 640.914062 384.242188 C 635.480469 392.78125 631.785156 402.460938 624.453125 409.769531 C 619.957031 414.253906 617.003906 419.683594 614.585938 425.484375 C 612.972656 429.359375 612.054688 433.609375 608.125 436.222656 C 605.664062 437.859375 607.714844 442.582031 603.984375 443.410156 C 601.53125 443.957031 598.84375 443.402344 596.335938 443.804688 C 594.410156 444.113281 592.699219 445.203125 592.140625 447.4375 C 591.441406 450.238281 590.628906 453.011719 589.898438 455.671875 C 584.335938 456.898438 583.910156 456.738281 582.574219 453.726562 C 578.367188 444.207031 574.308594 434.613281 569.820312 425.226562 C 565.300781 415.769531 560.597656 406.457031 557.65625 396.300781 C 555.570312 389.105469 552.472656 382.203125 549.902344 375.144531 C 546.214844 365.027344 542.867188 354.777344 538.851562 344.796875 C 535.941406 337.554688 532.003906 330.730469 528.859375 323.570312 C 526.761719 318.789062 521.644531 317.101562 518.847656 313.082031 C 518.65625 312.808594 516.367188 313.445312 515.679688 314.214844 C 514.894531 315.101562 514.714844 316.589844 514.4375 317.851562 C 514.160156 319.113281 514.53125 320.734375 513.863281 321.652344 C 507.082031 330.980469 506.417969 342.378906 503.027344 352.851562 C 500.613281 360.3125 497.644531 367.597656 495.019531 374.996094 C 492.949219 380.84375 491.023438 386.742188 489.03125 392.617188 C 488.820312 393.238281 488.65625 393.882812 488.363281 394.460938 C 480.703125 409.753906 477.597656 426.671875 471.238281 442.433594 C 468.4375 449.378906 465.949219 456.445312 463.257812 463.621094 C 465.085938 465.558594 471.03125 464.222656 468.828125 470.597656 C 466.253906 470.726562 463.480469 470.863281 460.796875 470.996094 C 460.5625 473.644531 461.195312 476.648438 460.019531 477.804688 C 457.320312 480.445312 453.878906 482.472656 450.457031 484.171875 C 448.515625 485.136719 446.007812 484.960938 443.507812 485.335938 C 442.136719 487.75 440.605469 490.449219 438.902344 493.441406 C 432.871094 491.851562 428.527344 489.207031 425.785156 483.699219 C 423.628906 479.371094 421.035156 474.949219 415.335938 474.300781 C 413.53125 468.289062 410.992188 462.738281 405.828125 458.730469 C 404.476562 459.242188 403.265625 459.699219 401.695312 460.289062 C 396.085938 454.789062 391.496094 447.976562 384.828125 443.230469 C 380.640625 450.082031 380.519531 452.351562 383.40625 458.386719 C 385.835938 463.460938 386.644531 468.410156 385.445312 474.375 C 383.394531 484.59375 381.019531 494.8125 380.484375 505.355469 C 379.609375 522.683594 378.394531 540.003906 376.839844 557.285156 C 375.910156 567.601562 371.433594 576.746094 365.300781 585.035156 C 364.28125 586.414062 362.476562 587.351562 361.082031 586.085938 C 360.085938 585.179688 359.125 582.4375 359.574219 582.007812 C 364.589844 577.21875 361.5625 572.636719 359.570312 568 C 359.101562 566.90625 358.554688 565.847656 357.917969 564.511719 C 351.128906 566.933594 347.347656 571.984375 343.542969 579.679688 C 342.492188 575.984375 341.898438 574.875 341.898438 573.765625 C 341.90625 554.425781 341.972656 535.089844 342.082031 515.75 C 342.089844 514.136719 342.019531 512.257812 342.769531 510.953125 C 347.140625 503.371094 346.308594 495.226562 345.851562 487.0625 C 345.707031 484.472656 346.128906 481.855469 346.261719 479.25 C 346.65625 471.402344 347.429688 463.546875 347.308594 455.707031 C 347.179688 447.6875 348.484375 440.03125 351.300781 432.636719 C 352.851562 428.570312 353.65625 424.46875 353.675781 420.175781 C 353.703125 413.6875 354.878906 407.308594 354.105469 400.679688 C 353.664062 396.878906 356.179688 392.621094 357.824219 388.761719 C 358.359375 387.5 360.28125 386.175781 361.671875 386.050781 C 366.054688 385.660156 368.140625 382.796875 369.121094 379.273438 C 370.429688 374.566406 374.132812 371.949219 376.933594 368.238281 C 381.46875 372.394531 385.640625 376.425781 390.035156 380.191406 C 394.746094 384.230469 399.84375 387.828125 404.445312 391.980469 C 408.789062 395.90625 412.613281 400.398438 416.832031 404.464844 C 421.3125 408.78125 425.496094 413.714844 430.71875 416.863281 C 435.933594 420.007812 436.960938 426.894531 443.5625 429.082031 C 446.582031 425.261719 450.480469 421.910156 452.039062 416.804688 C 453.085938 413.363281 454.28125 409.957031 455.097656 406.464844 C 457.101562 397.871094 459.007812 389.257812 460.792969 380.617188 C 461.910156 375.191406 462.726562 369.703125 463.707031 364.246094 C 463.9375 362.960938 464.035156 361.589844 464.578125 360.4375 C 468.792969 351.476562 470.117188 341.582031 473.550781 332.433594 C 477.90625 320.828125 480.6875 308.613281 487 297.714844 C 490.089844 292.375 492.214844 286.476562 494.707031 280.800781 C 495.222656 279.628906 496.082031 278.0625 495.695312 277.132812 C 493.664062 272.25 496.621094 268.578125 498.328125 264.132812 C 501.777344 265.066406 505.164062 265.984375 509.273438 267.101562 C 509.503906 265.484375 510.195312 263.914062 509.824219 262.660156 C 508.804688 259.25 512.148438 257.414062 512.351562 254.226562 C 514.121094 253.714844 516.03125 253.28125 517.851562 252.601562 C 519.328125 252.046875 520.699219 251.199219 522.617188 250.222656 Z M 488.382812 656.117188 L 487.664062 656.394531 L 488.53125 656.625 Z M 439.929688 636.03125 C 439.871094 636.296875 439.925781 636.0625 439.679688 636.707031 C 438.566406 638.976562 437.058594 639.570312 435.027344 638.710938 C 434.019531 638.195312 434.019531 638.195312 435.027344 638.710938 C 437.058594 639.570312 438.566406 638.976562 439.679688 636.707031 C 439.925781 636.0625 439.871094 636.296875 439.929688 636.03125 Z M 462.105469 630.703125 C 461.835938 631.761719 461.226562 632.664062 460.863281 633.6875 L 440.433594 633.6875 L 460.863281 633.6875 C 461.5625 631.730469 460.507812 634.578125 461.835938 631.542969 C 461.953125 631.273438 462.015625 630.980469 462.105469 630.703125 Z M 436.28125 628.664062 C 435.296875 630.15625 434.246094 631.605469 433.351562 633.148438 C 434.234375 631.597656 435.289062 630.148438 436.28125 628.664062 Z M 454.835938 631.03125 L 454.933594 630.835938 Z M 454.683594 630.816406 L 454.832031 631.03125 L 454.835938 631.03125 C 454.78125 630.964844 454.734375 630.886719 454.683594 630.816406 Z M 452.269531 630.734375 C 453.484375 630.890625 452.761719 630.800781 454.445312 630.988281 C 453.371094 630.816406 454.09375 630.921875 452.269531 630.734375 Z M 450.21875 630.464844 C 450.496094 630.550781 450.238281 630.472656 451.015625 630.570312 Z M 444.867188 628.023438 C 446.824219 628.871094 445.882812 628.386719 447.6875 629.472656 C 445.890625 628.265625 446.835938 628.742188 444.867188 628.023438 Z M 461.167969 627.949219 C 459.722656 628.300781 458.199219 628.144531 456.789062 628.699219 C 456.398438 628.949219 456.007812 629.195312 455.617188 629.445312 C 457.195312 628.121094 459.265625 628.308594 461.171875 627.949219 Z M 438.0625 627.84375 C 437.933594 627.863281 438.054688 627.847656 437.710938 627.921875 Z M 443.160156 627.539062 L 443.972656 627.699219 C 443.453125 627.511719 443.722656 627.566406 443.160156 627.539062 Z M 495.003906 611.835938 Z M 352.953125 541.714844 C 352.039062 545.128906 351.15625 548.550781 352.953125 553.945312 C 351.425781 549.371094 351.753906 546.304688 352.953125 541.714844 Z M 707.125 536.121094 C 705.636719 536.421875 704.097656 536.386719 702.585938 536.410156 L 702.582031 536.410156 C 703.847656 536.339844 705.96875 536.472656 707.125 536.121094 Z M 711.023438 530.742188 C 708.878906 531.328125 706.503906 531.992188 704.910156 533.652344 C 706.542969 532.015625 708.855469 531.328125 711.023438 530.742188 Z M 686.8125 473.277344 L 686.8125 473.324219 C 689.464844 484.324219 692.175781 495.3125 694.980469 506.273438 C 695.183594 507.054688 696.203125 507.625 696.898438 508.351562 C 697.953125 507.855469 697.464844 508.164062 698.363281 507.429688 C 697.464844 508.164062 697.953125 507.855469 696.898438 508.351562 C 696.203125 507.625 695.183594 507.054688 694.980469 506.273438 C 692.175781 495.3125 689.464844 484.324219 686.8125 473.324219 Z M 694.628906 487.679688 C 695.339844 490.113281 695.035156 489.066406 695.539062 490.816406 C 695.035156 489.066406 695.339844 490.113281 694.628906 487.679688 Z M 445.1875 479.886719 C 444.839844 480.148438 445.074219 479.960938 444.515625 480.5 C 444.414062 480.632812 444.679688 481.289062 444.796875 481.296875 L 444.917969 481.289062 L 444.796875 481.296875 C 444.679688 481.289062 444.414062 480.632812 444.515625 480.5 C 445.074219 479.960938 444.839844 480.148438 445.1875 479.886719 Z M 445.609375 479.566406 C 446.164062 480.613281 445.886719 480.089844 446.441406 481.136719 L 446.445312 481.136719 C 446.167969 480.613281 445.886719 480.089844 445.609375 479.566406 Z M 684.453125 465.992188 C 684.835938 466.671875 685.878906 466.976562 686.863281 467.601562 C 685.699219 466.9375 686.371094 467.324219 684.851562 466.441406 Z M 686.949219 459.5 L 687.773438 464.640625 C 687.734375 465.5 687.820312 465.074219 687.503906 465.910156 C 687.820312 465.074219 687.734375 465.5 687.773438 464.640625 Z M 437.144531 446.503906 C 437.863281 447.019531 437.796875 447.785156 437.71875 448.550781 C 437.265625 449.128906 436.410156 449.304688 435.75 449.609375 C 436.402344 449.226562 437.226562 449.152344 437.71875 448.550781 C 437.851562 447.632812 437.871094 447.179688 437.144531 446.503906 Z M 434.078125 445.8125 C 433.871094 445.929688 434.03125 445.839844 433.601562 446.082031 C 434.03125 445.839844 433.871094 445.929688 434.078125 445.8125 Z M 682.359375 436.222656 L 683.4375 440.527344 L 684.1875 443.957031 L 683.4375 440.527344 Z M 677.097656 438.167969 C 677.457031 439.71875 677.289062 439.035156 677.59375 440.222656 C 677.289062 439.035156 677.457031 439.71875 677.097656 438.167969 Z M 419.261719 432.425781 C 421.453125 434.648438 423.609375 436.914062 425.855469 439.082031 C 426.476562 439.605469 426.089844 439.339844 427.0625 439.792969 C 426.09375 439.339844 426.476562 439.605469 425.855469 439.082031 C 421.433594 434.671875 423.632812 436.890625 419.261719 432.425781 Z M 429.265625 438.632812 C 428.796875 439.226562 428.308594 439.703125 427.519531 439.757812 C 428.289062 439.808594 428.808594 439.148438 429.269531 438.632812 Z M 428.601562 426.757812 C 429.839844 428.613281 431.242188 430.289062 432.648438 432 C 434.75 434.308594 437.117188 436.359375 439.378906 438.503906 C 436.148438 435.410156 434.246094 433.839844 432.648438 432 C 431.195312 430.332031 429.929688 428.535156 428.601562 426.757812 Z M 431.386719 436.601562 C 433.039062 437.40625 432.105469 436.96875 434.203125 437.894531 C 434.800781 438.09375 434.445312 437.996094 435.289062 438.140625 C 434.445312 437.996094 434.800781 438.09375 434.203125 437.894531 Z M 427.363281 434.628906 C 428.421875 436.851562 427.996094 435.960938 428.632812 437.292969 C 428.015625 436 428.4375 436.890625 427.363281 434.628906 Z M 426.519531 434.140625 L 426.539062 434.15625 Z M 420.625 430.792969 L 420.253906 430.953125 C 420.800781 430.597656 421.410156 430.867188 421.945312 431.097656 C 423.335938 431.917969 422.753906 431.539062 423.710938 432.191406 C 422.753906 431.53125 423.332031 431.910156 421.945312 431.097656 C 421.21875 430.78125 421.648438 430.917969 420.625 430.792969 Z M 420.765625 425.976562 L 420.582031 426.191406 Z M 425.714844 424.214844 L 426 424.304688 C 425.726562 424.21875 425.820312 424.242188 425.714844 424.214844 Z M 676.023438 404.863281 L 676.140625 405.015625 C 676.886719 406.402344 677.152344 408.136719 677.265625 409.75 L 677.632812 413.578125 L 677.265625 409.75 C 677.152344 408.136719 676.886719 406.402344 676.140625 405.019531 Z M 676.023438 404.863281 " fill-opacity="1" fill-rule="nonzero"/></g><path fill="#adff00" d="M 382.597656 646.269531 L 382.621094 646.347656 C 386.046875 648.121094 389.46875 649.894531 392.894531 651.667969 C 386.050781 651.40625 385.945312 651.464844 383.949219 649.671875 C 383.117188 648.769531 382.964844 647.480469 382.621094 646.347656 L 382.542969 646.304688 L 382.492188 646.339844 L 382.421875 646.335938 Z M 382.597656 646.269531 " fill-opacity="1" fill-rule="nonzero"/><path fill="#adff00" d="M 379.691406 646.136719 C 381.523438 646.28125 380.613281 646.214844 382.421875 646.335938 C 380.839844 646.90625 381.667969 646.644531 379.933594 647.113281 C 379.640625 647.15625 379.242188 646.523438 378.890625 646.199219 C 379.15625 646.175781 379.425781 646.121094 379.691406 646.136719 Z M 379.691406 646.136719 " fill-opacity="1" fill-rule="nonzero"/><path fill="#adff00" d="M 457.125 616.933594 C 459.292969 618.953125 462.277344 618.703125 465.015625 618.941406 C 462.320312 619.742188 460.386719 619.828125 458.066406 618.0625 C 457.726562 617.808594 457.496094 617.433594 457.210938 617.117188 Z M 457.125 616.933594 " fill-opacity="1" fill-rule="nonzero"/><path fill="#adff00" d="M 457.128906 616.960938 C 457.125 616.933594 457.210938 617.117188 457.210938 617.117188 L 456.929688 617.171875 C 456.746094 617.375 456.871094 617.25 456.511719 617.511719 C 456.335938 617.578125 456.074219 617.433594 455.855469 617.382812 L 456.929688 617.171875 Z M 457.128906 616.960938 " fill-opacity="1" fill-rule="nonzero"/><path fill="#adff00" d="M 455.601562 604.511719 C 461.820312 605.089844 459.140625 604.71875 463.675781 605.457031 C 465.273438 605.75 466.835938 606.253906 468.4375 606.492188 C 470.363281 606.777344 472.3125 606.929688 474.257812 607.054688 C 476.191406 607.179688 478.683594 606.882812 479.238281 609.089844 C 479.824219 611.40625 481.488281 611.925781 484.125 612.828125 C 478.066406 616.410156 473.15625 616.683594 467.878906 614.984375 C 463.21875 613.488281 458.347656 613.140625 453.398438 613.6875 C 450.308594 614.027344 447.152344 613.75 443.988281 612.785156 C 447.816406 612.46875 451.644531 612.148438 455.363281 611.839844 C 456.339844 610.160156 457.21875 608.644531 458.121094 607.085938 C 457.921875 606.925781 457.5 606.285156 457.066406 606.277344 C 452.5625 606.203125 448.058594 606.234375 443.554688 605.90625 C 446.367188 605.191406 447.234375 604.890625 450.640625 604.609375 C 452.289062 604.472656 453.949219 604.542969 455.601562 604.511719 Z M 467.089844 609.496094 L 467.09375 609.515625 Z M 465.324219 609.449219 L 465.390625 609.503906 Z M 466.777344 608.597656 C 466.957031 609.070312 466.898438 608.890625 466.976562 609.132812 C 466.859375 608.714844 466.9375 608.890625 466.777344 608.597656 Z M 465.078125 608.890625 L 465.132812 609.03125 Z M 466.699219 608.511719 L 466.085938 608.621094 Z M 466.699219 608.511719 " fill-opacity="1" fill-rule="nonzero"/><path fill="#adff00" d="M 530.140625 605.738281 L 530.3125 605.953125 L 529.957031 605.980469 C 529.488281 606.652344 529.09375 607.210938 528.394531 607.640625 C 525.125 608.703125 522.101562 608.140625 519.023438 606.8125 C 526.421875 606.246094 522.777344 606.523438 529.957031 605.980469 Z M 530.140625 605.738281 " fill-opacity="1" fill-rule="nonzero"/><path fill="#adff00" d="M 537.109375 602.921875 L 537.222656 602.976562 L 537.226562 602.976562 C 537.972656 603.1875 538.71875 603.398438 539.464844 603.605469 C 539.417969 603.714844 539.367188 603.824219 539.320312 603.933594 C 537.902344 603.304688 538.605469 603.621094 537.210938 602.984375 L 537.046875 603.050781 C 536.421875 604.210938 535.871094 605.898438 534.402344 606.230469 C 533.167969 606.507812 531.757812 606.082031 530.558594 605.835938 C 532.316406 604.992188 531.390625 605.425781 533.328125 604.539062 C 535.859375 603.507812 534.621094 604.003906 537.046875 603.050781 Z M 537.109375 602.921875 " fill-opacity="1" fill-rule="nonzero"/><path fill="#adff00" d="M 530.148438 605.75 L 530.558594 605.835938 L 530.3125 605.953125 C 530.3125 605.953125 530.140625 605.738281 530.148438 605.75 Z M 530.148438 605.75 " fill-opacity="1" fill-rule="nonzero"/><path fill="#adff00" d="M 569.761719 596.507812 C 573.371094 596.773438 571.917969 596.519531 574.160156 597 C 565.871094 599.378906 559.027344 601.507812 550.308594 601.78125 C 555.90625 600.632812 560.996094 597.691406 566.664062 596.796875 C 567.6875 596.632812 568.730469 596.605469 569.761719 596.507812 Z M 569.761719 596.507812 " fill-opacity="1" fill-rule="nonzero"/><path fill="#adff00" d="M 616.5625 580.53125 L 616.84375 580.570312 C 616.640625 581.148438 616.660156 581.5625 616.191406 582.019531 C 588.425781 591.964844 602.28125 587.019531 574.628906 596.855469 L 574.636719 597.121094 L 574.613281 597.097656 L 574.160156 597 L 574.425781 596.925781 L 574.628906 596.855469 C 574.617188 596.523438 574.59375 595.730469 574.597656 595.632812 C 574.605469 595.550781 574.667969 595.480469 574.703125 595.40625 C 588.1875 589.597656 601.808594 584.148438 616.082031 580.539062 Z M 616.5625 580.53125 " fill-opacity="1" fill-rule="nonzero"/><path fill="#adff00" d="M 609.742188 591.238281 L 609.75 591.242188 L 613.21875 591.359375 C 615.6875 591.421875 613.894531 591.375 618.605469 591.519531 L 618.71875 591.523438 C 618.71875 591.523438 618.734375 591.523438 618.734375 591.523438 L 618.605469 591.519531 C 613.910156 591.386719 615.703125 591.445312 613.21875 591.359375 L 609.78125 591.277344 Z M 609.742188 591.238281 " fill-opacity="1" fill-rule="nonzero"/><path fill="#adff00" d="M 625.550781 585.320312 C 625.585938 585.351562 625.574219 585.339844 625.589844 585.355469 L 625.601562 585.359375 L 625.695312 585.398438 L 625.640625 585.402344 C 625.648438 585.410156 625.648438 585.40625 625.636719 585.402344 L 625.632812 585.402344 L 625.542969 585.449219 C 625.550781 587.046875 624.507812 588.011719 623.195312 588.703125 C 621.617188 589.476562 620.199219 590.53125 618.742188 591.507812 L 618.734375 591.523438 L 618.71875 591.523438 L 618.742188 591.507812 C 619.148438 590.484375 619.296875 589.335938 620.109375 588.542969 C 621.777344 587.28125 623.6875 586.394531 625.542969 585.449219 Z M 625.597656 585.363281 L 625.640625 585.402344 Z M 625.597656 585.363281 " fill-opacity="1" fill-rule="nonzero"/><path fill="#adff00" d="M 650.492188 577.757812 C 650.410156 578.410156 650.328125 579.066406 650.246094 579.71875 L 650.210938 579.726562 C 646.355469 580.128906 648.207031 579.9375 644.660156 580.296875 L 644.40625 580.566406 L 643.796875 580.722656 C 641.148438 583.660156 637.421875 584.707031 633.597656 584.773438 L 633.441406 584.980469 L 633.292969 584.835938 C 633.414062 584.953125 633.367188 584.90625 633.429688 584.96875 L 632.945312 584.996094 C 630.648438 586.859375 628.21875 586.472656 625.695312 585.398438 C 630.652344 585.097656 628.234375 585.230469 632.945312 584.996094 L 633.234375 584.777344 L 633.597656 584.773438 C 634.089844 584.070312 634.441406 583.511719 635.179688 583.058594 C 641.101562 581.375 638.230469 582.148438 643.796875 580.722656 L 644.175781 580.339844 C 644.265625 580.425781 644.199219 580.363281 644.367188 580.53125 C 644.207031 580.367188 644.265625 580.429688 644.1875 580.34375 L 644.660156 580.296875 C 646.128906 578.574219 648.335938 579.398438 650.214844 579.714844 Z M 650.492188 577.757812 " fill-opacity="1" fill-rule="nonzero"/><path fill="#adff00" d="M 646.046875 585.195312 C 646.273438 585.195312 646.503906 585.308594 646.730469 585.378906 C 646.65625 585.539062 646.597656 585.824219 646.507812 585.835938 C 646.296875 585.859375 646.066406 585.753906 645.847656 585.699219 C 645.914062 585.523438 645.980469 585.199219 646.046875 585.195312 Z M 646.046875 585.195312 " fill-opacity="1" fill-rule="nonzero"/><path fill="#adff00" d="M 616.894531 580.410156 L 616.984375 580.511719 C 616.914062 580.429688 616.941406 580.464844 616.898438 580.414062 L 617.28125 580.429688 L 617.058594 580.597656 L 616.84375 580.570312 Z M 616.894531 580.410156 " fill-opacity="1" fill-rule="nonzero"/><path fill="#adff00" d="M 621.339844 577.378906 C 621.351562 577.386719 621.347656 577.382812 621.351562 577.390625 C 621.347656 577.382812 621.351562 577.386719 621.347656 577.378906 L 621.382812 577.390625 L 621.351562 577.394531 L 621.335938 577.40625 C 620.949219 580.789062 620.21875 580.574219 617.28125 580.429688 C 619.914062 578.464844 618.5625 579.472656 621.335938 577.40625 Z M 621.339844 577.378906 " fill-opacity="1" fill-rule="nonzero"/><path fill="#adff00" d="M 629.453125 577.144531 C 629.453125 577.144531 629.65625 577.324219 629.636719 577.304688 L 629.140625 577.3125 C 626.613281 578.789062 623.996094 578.257812 621.382812 577.390625 C 626.703125 577.328125 624.117188 577.355469 629.140625 577.3125 Z M 629.453125 577.144531 " fill-opacity="1" fill-rule="nonzero"/><path fill="#adff00" d="M 654.355469 573.707031 L 655.773438 573.75 C 655.320312 573.976562 655.640625 573.820312 654.796875 574.195312 C 654.722656 574.222656 654.507812 573.878906 654.355469 573.707031 Z M 654.355469 573.707031 " fill-opacity="1" fill-rule="nonzero"/><g clip-path="url(#99714da9e5)"><path fill="#adff00" d="M 346.007812 392.519531 L 345.960938 394.113281 C 345.570312 397.917969 344.25 400.800781 346.445312 404.207031 C 346.804688 404.699219 346.265625 406.039062 345.871094 406.855469 C 343.550781 411.628906 342.96875 416.617188 343.195312 421.894531 C 343.449219 427.769531 342.738281 433.617188 341.019531 439.292969 C 340.644531 440.53125 340.074219 441.769531 339.996094 443.035156 C 339.785156 446.296875 339.34375 449.644531 339.84375 452.824219 C 340.453125 456.675781 335.242188 457.058594 335.867188 461.070312 C 336.304688 463.894531 332.890625 467.066406 336.378906 469.898438 C 336.007812 475.011719 335.636719 480.128906 335.195312 486.230469 C 332.429688 482.835938 335.117188 479.527344 332.699219 476.417969 C 331.714844 478.652344 331.816406 480.738281 331.40625 482.640625 C 330.921875 484.875 330.253906 487.113281 330.140625 489.371094 C 328.949219 513.214844 329.175781 537.0625 330.066406 560.90625 C 330.121094 562.472656 331.023438 563.988281 331.261719 565.570312 C 331.589844 567.761719 331.660156 569.992188 331.839844 572.207031 C 325.960938 565.226562 328.632812 557.105469 327.265625 549.457031 C 326.410156 550 325.460938 550.347656 325.480469 550.621094 C 326.078125 558.550781 318.15625 564.738281 320.898438 573.085938 C 320.980469 573.335938 320.910156 573.644531 320.910156 573.921875 C 317.539062 574.585938 316.132812 573.914062 316.421875 571.695312 C 318.027344 559.371094 319.773438 547.0625 321.269531 534.722656 C 322.210938 526.941406 322.582031 519.089844 323.605469 511.320312 C 325.140625 499.652344 326.917969 488.011719 328.792969 476.394531 C 330.09375 468.328125 331.535156 460.277344 333.289062 452.300781 C 334.621094 446.257812 336.414062 440.308594 338.246094 434.390625 C 339.449219 430.511719 339.488281 426.609375 338.851562 422.75 C 338.140625 418.433594 338.277344 414.300781 339.679688 410.171875 C 341.441406 404.984375 341.230469 399.964844 337.285156 394.828125 C 340.191406 394.058594 343.101562 393.289062 346.007812 392.519531 Z M 346.007812 392.519531 " fill-opacity="1" fill-rule="nonzero"/></g><path fill="#adff00" d="M 656.332031 573.46875 L 656.335938 573.476562 L 656.550781 573.757812 L 656.550781 573.773438 L 655.773438 573.75 Z M 656.332031 573.46875 " fill-opacity="1" fill-rule="nonzero"/><path fill="#adff00" d="M 336.617188 521.046875 C 336.824219 521.140625 337.03125 521.234375 337.234375 521.328125 C 336.945312 521.511719 336.652344 521.699219 336.359375 521.882812 C 336.445312 521.605469 336.53125 521.328125 336.617188 521.046875 Z M 336.617188 521.046875 " fill-opacity="1" fill-rule="nonzero"/><path fill="#adff00" d="M 339.140625 498.628906 L 339.140625 501.46875 C 338.894531 500.933594 338.597656 500.414062 338.4375 499.855469 C 338.382812 499.671875 338.691406 499.382812 339.140625 498.628906 Z M 339.140625 498.628906 " fill-opacity="1" fill-rule="nonzero"/><path fill="#adff00" d="M 412.722656 484.621094 C 413.226562 484.761719 413.691406 485.058594 414.167969 485.300781 C 413.972656 485.527344 413.707031 485.972656 413.601562 485.9375 C 413.078125 485.757812 412.59375 485.457031 412.09375 485.195312 C 412.308594 484.992188 412.578125 484.582031 412.722656 484.621094 Z M 412.722656 484.621094 " fill-opacity="1" fill-rule="nonzero"/><path fill="#adff00" d="M 340.371094 477.804688 C 340.574219 477.816406 340.78125 477.828125 340.984375 477.839844 L 340.984375 484.214844 C 340.800781 484.253906 340.613281 484.296875 340.429688 484.339844 C 340.289062 483.355469 340.039062 482.371094 340.039062 481.390625 C 340.039062 480.195312 340.25 479 340.371094 477.804688 Z M 340.371094 477.804688 " fill-opacity="1" fill-rule="nonzero"/><path fill="#adff00" d="M 567.460938 437.292969 C 567.609375 437.289062 567.773438 437.695312 567.929688 437.914062 C 567.425781 438.132812 566.929688 438.445312 566.402344 438.515625 C 566.242188 438.539062 565.992188 437.90625 565.78125 437.570312 C 566.339844 437.46875 566.898438 437.316406 567.460938 437.292969 Z M 567.460938 437.292969 " fill-opacity="1" fill-rule="nonzero"/><g clip-path="url(#ee19141d78)"><path fill="#adff00" d="M 238.597656 751.976562 C 235.277344 751.976562 231.828125 751.976562 228.507812 751.976562 C 225.851562 751.976562 224.390625 752.109375 225.585938 755.691406 C 226.382812 757.949219 219.480469 761.535156 217.488281 759.808594 C 214.433594 757.285156 216.691406 755.558594 218.949219 753.96875 C 219.613281 753.570312 220.144531 753.039062 220.808594 752.507812 C 220.011719 752.242188 219.214844 751.976562 218.550781 751.84375 C 214.832031 751.445312 212.175781 752.773438 209.917969 755.824219 C 208.859375 757.285156 206.46875 757.683594 206.203125 755.296875 C 205.804688 751.710938 202.882812 750.25 201.289062 747.59375 C 198.632812 743.34375 198.765625 740.824219 201.820312 736.972656 C 203.546875 734.847656 206.335938 733.519531 205.9375 730.070312 C 205.804688 728.742188 207.132812 728.210938 208.328125 728.609375 C 215.496094 730.863281 218.019531 729.539062 223.992188 727.148438 C 231.960938 723.828125 239.660156 719.179688 248.820312 719.445312 C 251.078125 719.578125 252.539062 718.648438 254.265625 717.984375 C 262.761719 714.800781 271.261719 712.675781 280.289062 711.082031 C 287.589844 709.753906 295.027344 709.089844 302.328125 707.761719 C 307.90625 706.964844 311.488281 701.921875 315.871094 698.46875 C 320.121094 695.015625 324.101562 691.832031 329.8125 692.097656 C 333.796875 692.363281 336.980469 690.371094 339.902344 688.511719 C 344.683594 685.457031 349.992188 683.730469 355.039062 681.339844 C 359.550781 679.21875 365.261719 679.351562 370.441406 678.6875 C 373.492188 678.289062 376.546875 678.289062 379.734375 678.421875 C 382.523438 678.421875 385.042969 678.554688 386.636719 675.234375 C 387.433594 673.640625 389.558594 671.515625 392.082031 674.171875 C 393.542969 675.632812 394.472656 674.570312 395.402344 673.375 C 397.125 671.117188 398.054688 672.578125 399.25 674.039062 C 400.445312 675.632812 399.25 678.820312 402.835938 678.820312 C 405.757812 678.820312 408.414062 678.554688 410.136719 675.632812 C 410.667969 674.570312 411.464844 673.640625 412.660156 674.304688 C 413.191406 674.570312 413.324219 675.765625 413.457031 676.5625 C 414.519531 682.136719 414.519531 682.535156 420.097656 681.871094 C 423.414062 681.472656 425.671875 681.871094 427 684.925781 C 428.59375 688.378906 431.515625 688.644531 434.699219 688.511719 C 437.753906 688.378906 440.808594 688.378906 443.996094 688.378906 C 446.519531 688.378906 448.507812 688.511719 449.570312 685.058594 C 450.367188 682.269531 454.351562 682.667969 455.28125 685.722656 C 456.34375 688.777344 457.9375 688.910156 460.324219 688.644531 C 471.480469 687.316406 482.765625 687.847656 493.917969 687.183594 C 494.714844 687.183594 496.042969 687.316406 496.441406 686.917969 C 500.15625 682.667969 503.742188 682.800781 507.460938 686.785156 C 512.371094 684.261719 517.683594 686.121094 522.726562 686.121094 C 533.882812 686.253906 545.300781 683.464844 556.453125 686.519531 C 558.3125 687.050781 560.433594 687.316406 562.292969 686.785156 C 568.667969 684.925781 575.039062 686.386719 581.28125 685.988281 C 587.386719 685.589844 594.160156 687.050781 600 683.464844 C 601.460938 682.535156 602.921875 681.472656 604.648438 682.800781 C 604.914062 682.933594 605.179688 683.066406 605.445312 683.066406 C 609.296875 683.863281 607.171875 678.289062 611.152344 678.15625 C 614.339844 678.15625 614.605469 682.933594 618.191406 681.074219 C 622.96875 678.554688 628.015625 678.15625 633.460938 678.15625 C 635.449219 678.15625 637.574219 677.09375 639.699219 678.289062 C 640.363281 678.6875 641.425781 678.289062 642.222656 678.6875 C 646.074219 680.277344 647.796875 673.90625 650.585938 675.765625 C 653.90625 678.023438 657.09375 678.554688 660.808594 678.554688 C 664.128906 678.554688 667.582031 678.289062 670.769531 679.75 C 671.964844 680.277344 673.15625 680.015625 673.6875 678.953125 C 675.015625 676.429688 676.476562 676.695312 678.203125 678.421875 C 678.601562 678.953125 679.796875 679.882812 679.929688 679.085938 C 680.992188 672.578125 685.105469 677.890625 687.496094 676.960938 C 689.089844 676.429688 690.019531 677.226562 690.550781 678.820312 C 691.878906 683.066406 695.464844 683.597656 699.179688 683.863281 C 702.234375 683.996094 705.289062 683.996094 708.476562 684.128906 C 710.199219 684.128906 712.191406 684.128906 712.988281 682.535156 C 714.582031 679.484375 715.113281 677.226562 718.566406 681.472656 C 720.558594 683.996094 729.453125 682.136719 731.84375 679.882812 C 733.570312 678.289062 730.648438 676.828125 732.109375 675.367188 C 732.90625 674.570312 733.570312 673.507812 734.765625 673.640625 C 736.355469 673.773438 736.222656 675.101562 735.957031 676.164062 C 735.558594 677.492188 734.898438 678.6875 734.5 680.015625 C 733.703125 682.800781 735.425781 684.128906 737.417969 683.066406 C 739.941406 681.738281 741.003906 682.402344 743.128906 683.863281 C 747.640625 686.785156 753.21875 685.722656 757.867188 684.527344 C 768.089844 681.871094 778.445312 681.472656 788.667969 680.148438 C 795.441406 679.351562 802.34375 680.015625 809.117188 680.941406 C 810.574219 681.074219 811.769531 681.605469 813.097656 680.808594 C 816.949219 678.421875 819.738281 681.339844 823.1875 682.269531 C 826.109375 683.066406 830.226562 679.75 832.75 682.003906 C 837.394531 685.988281 844.964844 687.050781 846.160156 694.75 C 846.558594 697.140625 848.679688 698.335938 850.273438 699.929688 C 854.257812 703.78125 856.648438 707.628906 854.921875 713.871094 C 853.859375 717.722656 854.921875 722.367188 851.203125 725.289062 C 844.964844 730.332031 838.589844 735.246094 832.351562 740.160156 C 829.828125 742.019531 827.570312 739.894531 825.179688 739.496094 C 819.074219 738.300781 813.363281 736.308594 809.515625 731.128906 C 808.1875 729.273438 806.195312 729.40625 804.335938 728.742188 C 798.757812 727.015625 793.582031 724.492188 788.269531 722.101562 C 782.164062 719.3125 774.992188 718.515625 768.089844 717.589844 C 754.8125 715.863281 741.402344 716.261719 728.125 714.269531 C 724.007812 713.605469 719.761719 714.003906 715.511719 714.003906 C 707.546875 713.871094 699.578125 713.738281 691.746094 712.542969 C 688.425781 712.011719 687.230469 714.136719 687.230469 716.925781 C 687.230469 719.578125 687.097656 722.234375 683.914062 722.898438 C 680.460938 723.5625 677.140625 723.164062 674.617188 720.375 C 673.421875 719.179688 672.890625 717.457031 671.699219 716.394531 C 669.707031 714.402344 667.050781 712.542969 664.261719 713.207031 C 652.976562 715.996094 641.824219 712.808594 630.539062 713.074219 C 623.5 713.339844 616.464844 713.871094 609.429688 714.402344 C 603.984375 714.800781 598.671875 713.738281 593.097656 714.003906 C 585.394531 714.402344 577.429688 714.003906 569.597656 714.402344 C 560.433594 714.933594 551.273438 714.402344 542.246094 714.800781 C 535.074219 715.199219 527.90625 716.128906 520.871094 717.191406 C 519.542969 717.324219 518.480469 717.722656 517.019531 717.324219 C 511.972656 715.597656 506.929688 716.261719 502.28125 718.25 C 495.644531 721.039062 488.472656 718.78125 481.703125 721.171875 C 473.46875 724.09375 464.574219 723.164062 456.078125 723.164062 C 454.085938 723.164062 451.828125 722.898438 450.367188 723.828125 C 441.738281 728.609375 432.179688 726.882812 423.148438 728.476562 C 413.324219 730.070312 403.367188 730.730469 393.675781 732.988281 C 383.1875 735.378906 372.164062 736.175781 361.542969 738.433594 C 353.179688 740.292969 344.417969 740.160156 336.316406 743.210938 C 335.785156 743.34375 335.121094 743.476562 334.722656 743.34375 C 327.15625 740.027344 319.988281 745.203125 312.683594 744.671875 C 306.445312 744.273438 300.734375 746.796875 294.363281 746.398438 C 288.917969 746.132812 283.210938 748.921875 277.765625 750.78125 C 276.304688 751.3125 275.242188 752.773438 273.382812 752.507812 C 272.320312 752.375 270.996094 752.375 271.261719 754.101562 C 271.394531 754.898438 271.925781 755.691406 272.984375 755.691406 C 278.5625 755.558594 274.976562 759.277344 274.578125 760.605469 C 273.648438 764.191406 271.792969 761.535156 270.199219 760.738281 C 268.605469 760.074219 268.074219 760.074219 267.542969 759.808594 C 265.285156 758.746094 265.417969 754.632812 262.097656 755.425781 C 259.707031 755.957031 257.453125 757.152344 255.726562 759.144531 C 254.53125 760.339844 253.070312 761.667969 251.609375 759.675781 C 250.546875 758.347656 250.148438 757.019531 252.007812 755.425781 C 254.53125 753.171875 252.9375 752.109375 250.414062 752.109375 C 246.433594 751.84375 242.582031 751.976562 238.597656 751.976562 Z M 354.640625 765.519531 C 354.507812 766.847656 354.375 768.96875 352.78125 768.703125 C 348.664062 768.171875 345.214844 770.429688 341.363281 770.828125 C 335.652344 771.226562 331.140625 775.078125 325.828125 776.804688 C 323.96875 777.335938 322.109375 779.460938 322.640625 782.246094 C 323.039062 784.636719 325.296875 785.035156 327.023438 785.699219 C 329.414062 786.628906 331.804688 785.832031 334.328125 785.433594 C 343.621094 783.839844 352.914062 782.511719 362.207031 781.316406 C 364.199219 781.050781 366.058594 781.316406 367.785156 780.125 C 370.574219 778.132812 372.164062 779.328125 373.492188 782.246094 C 374.15625 783.707031 375.085938 786.496094 377.609375 785.566406 C 380.265625 784.636719 380.53125 782.644531 378.804688 780.257812 C 377.742188 778.796875 378.804688 777.601562 380.398438 777.46875 C 389.425781 776.539062 398.585938 775.875 407.617188 774.8125 C 415.714844 773.882812 424.34375 776.671875 431.78125 773.484375 C 440.144531 769.898438 448.640625 772.820312 456.875 771.09375 C 460.324219 770.296875 461.917969 776.007812 464.972656 773.484375 C 467.496094 771.359375 470.152344 770.5625 473.203125 770.03125 C 474.796875 769.765625 476.523438 768.96875 478.117188 769.234375 C 480.640625 769.765625 483.960938 769.5 483.828125 773.75 C 483.828125 774.8125 484.753906 775.875 486.082031 775.742188 C 487.277344 775.609375 488.472656 774.414062 488.207031 773.484375 C 486.480469 767.378906 489.535156 767.511719 493.917969 768.835938 C 494.582031 769.101562 495.777344 768.96875 496.308594 768.4375 C 502.546875 764.191406 508.65625 764.589844 514.628906 768.703125 C 515.691406 769.367188 516.886719 769.632812 517.683594 768.835938 C 519.675781 767.246094 520.339844 767.90625 521.933594 769.898438 C 524.585938 773.21875 526.046875 772.6875 527.640625 768.171875 C 528.304688 766.183594 529.234375 765.121094 530.960938 765.253906 C 534.28125 765.652344 538.527344 761.136719 541.183594 766.847656 C 541.316406 767.113281 542.910156 767.246094 543.441406 766.847656 C 550.476562 761.933594 557.382812 765.386719 564.152344 767.113281 C 567.339844 767.90625 569.996094 769.5 571.988281 772.820312 C 575.570312 778.53125 575.96875 778.132812 581.546875 774.28125 C 586.058594 771.09375 590.175781 768.570312 596.949219 770.429688 C 603.054688 772.023438 610.089844 771.757812 616.996094 770.5625 C 622.96875 769.5 628.945312 768.304688 635.582031 770.03125 C 640.628906 771.359375 646.605469 772.820312 652.445312 770.828125 C 658.6875 768.703125 658.820312 768.96875 662.933594 774.8125 C 665.058594 777.734375 666.917969 779.460938 671.167969 777.734375 C 673.289062 776.804688 677.539062 775.875 678.203125 780.917969 C 678.46875 782.910156 680.460938 783.441406 682.1875 782.511719 C 684.3125 781.449219 684.710938 779.859375 683.117188 777.734375 C 682.054688 776.40625 681.390625 774.8125 680.859375 773.21875 C 680.460938 771.890625 680.59375 770.429688 682.054688 769.5 C 684.578125 768.039062 693.074219 770.296875 694.933594 772.953125 C 697.058594 776.007812 700.507812 777.601562 704.09375 777.601562 C 705.15625 777.601562 706.351562 778 707.414062 778.132812 C 710.996094 778.664062 714.050781 777.867188 715.910156 774.414062 C 718.566406 776.273438 721.355469 777.46875 724.539062 775.609375 C 726.929688 774.28125 729.320312 772.820312 731.710938 771.359375 C 733.304688 770.429688 735.03125 770.03125 736.355469 771.226562 C 738.613281 773.351562 741.003906 776.804688 743.792969 774.679688 C 745.652344 773.351562 742.066406 770.164062 741.535156 767.511719 C 741.402344 766.714844 741.667969 765.785156 742.066406 765.121094 C 742.863281 763.660156 743.925781 764.589844 744.855469 764.988281 C 745.386719 765.253906 745.785156 765.652344 746.183594 765.917969 C 747.773438 766.847656 749.234375 767.246094 750.695312 765.652344 C 752.023438 764.324219 750.695312 763.261719 750.429688 761.933594 C 749.234375 757.152344 745.519531 753.171875 746.183594 747.726562 C 746.316406 746.265625 745.121094 745.070312 743.792969 744.539062 C 741.003906 743.476562 739.410156 741.222656 737.417969 739.097656 C 735.425781 736.972656 733.304688 736.042969 730.117188 735.777344 C 718.566406 734.582031 707.28125 732.855469 695.597656 733.253906 C 691.746094 733.386719 688.160156 734.449219 684.3125 734.316406 C 675.148438 733.917969 666.121094 736.308594 657.226562 737.902344 C 653.109375 738.699219 649.523438 740.691406 645.277344 738.566406 C 644.613281 738.300781 643.683594 738.699219 642.886719 738.964844 C 636.511719 740.824219 630.140625 739.894531 623.632812 740.027344 C 620.714844 740.160156 617.261719 740.425781 615.535156 736.839844 C 615.003906 735.644531 613.410156 735.246094 612.746094 736.042969 C 610.089844 738.964844 606.375 737.105469 603.1875 738.300781 C 598.140625 740.292969 593.496094 738.964844 589.644531 735.113281 C 588.582031 733.917969 587.121094 733.519531 585.925781 733.917969 C 583.140625 734.980469 580.882812 741.488281 577.5625 734.449219 C 577.164062 734.714844 576.5 734.980469 576.234375 735.378906 C 574.109375 738.832031 571.457031 738.300781 567.738281 738.035156 C 562.957031 737.769531 557.914062 738.035156 553.132812 738.167969 C 548.75 738.300781 544.371094 736.574219 540.121094 737.769531 C 526.3125 741.621094 511.972656 740.957031 498.03125 742.285156 C 484.757812 743.609375 471.878906 747.0625 458.734375 748.789062 C 454.484375 749.320312 450.367188 748.65625 446.253906 749.585938 C 440.011719 750.914062 433.773438 751.710938 427.398438 752.375 C 420.496094 753.171875 413.457031 753.96875 406.554688 754.234375 C 402.570312 754.367188 398.851562 756.621094 395.269531 756.621094 C 386.503906 756.488281 378.40625 758.214844 370.707031 762.066406 C 365.394531 764.855469 359.289062 763.660156 353.84375 765.652344 Z M 759.59375 780.257812 C 758.929688 778.796875 757.070312 778.398438 756.273438 779.992188 C 754.679688 783.175781 752.15625 785.566406 750.03125 788.222656 C 749.101562 789.417969 749.898438 790.214844 751.226562 790.613281 C 755.210938 791.011719 761.183594 783.707031 759.59375 780.257812 Z M 210.183594 783.308594 C 210.582031 785.964844 212.042969 789.019531 214.300781 788.488281 C 217.355469 787.691406 216.027344 784.769531 214.699219 782.511719 C 214.300781 781.847656 214.035156 780.917969 214.167969 780.257812 C 214.300781 778.664062 213.902344 777.601562 212.042969 777.601562 C 209.785156 777.601562 209.386719 779.0625 209.652344 780.917969 C 209.917969 781.714844 210.050781 782.511719 210.183594 783.308594 Z M 226.648438 778.398438 C 226.515625 777.867188 225.1875 777.601562 224.523438 777.601562 C 223.59375 777.601562 223.195312 778.53125 223.195312 779.328125 C 223.328125 782.910156 224.921875 786.097656 226.25 789.285156 C 226.515625 789.949219 227.3125 790.613281 228.242188 790.214844 C 229.039062 789.816406 229.4375 789.152344 229.304688 787.027344 C 228.640625 785.035156 227.710938 781.714844 226.648438 778.398438 Z M 247.359375 760.871094 C 245.769531 758.746094 243.644531 758.613281 241.253906 759.277344 C 240.324219 759.542969 237.933594 766.050781 238.464844 766.582031 C 238.863281 766.980469 239.394531 767.246094 239.792969 767.378906 C 241.386719 767.644531 247.492188 763.925781 247.757812 762.464844 C 247.625 761.933594 247.625 761.269531 247.359375 760.871094 Z M 737.949219 785.433594 C 738.082031 787.027344 738.746094 789.152344 740.871094 788.488281 C 742.863281 787.957031 745.253906 787.160156 745.121094 784.238281 C 744.988281 782.113281 743.128906 783.042969 742.066406 782.777344 C 740.074219 782.644531 737.683594 782.378906 737.949219 785.433594 Z M 665.457031 665.277344 C 663.863281 665.675781 662.003906 666.871094 662.136719 669.257812 C 662.136719 670.984375 663.332031 670.71875 664.394531 670.851562 C 666.253906 670.984375 667.714844 670.453125 667.449219 668.0625 C 667.050781 666.871094 666.652344 664.878906 665.457031 665.277344 Z M 652.3125 665.144531 C 652.710938 663.550781 651.914062 662.089844 650.71875 661.957031 C 649.125 661.691406 647.664062 663.019531 647.265625 664.480469 C 646.871094 665.941406 648.0625 666.871094 649.523438 667.402344 C 651.117188 667.402344 651.914062 666.605469 652.3125 665.144531 Z M 715.246094 783.574219 C 715.246094 781.980469 714.714844 781.050781 712.988281 780.917969 C 710.863281 780.785156 710.066406 781.980469 710.199219 783.972656 C 710.199219 785.832031 710.996094 787.027344 712.988281 787.292969 C 714.847656 786.761719 715.246094 785.300781 715.246094 783.574219 Z M 744.324219 673.375 C 744.324219 675.101562 745.652344 675.632812 747.246094 675.632812 C 748.304688 675.632812 749.898438 675.765625 749.898438 674.4375 C 750.03125 672.578125 748.835938 671.515625 746.980469 670.984375 C 745.386719 670.851562 744.324219 671.648438 744.324219 673.375 Z M 233.554688 758.082031 C 233.6875 759.675781 234.613281 760.738281 236.207031 760.339844 C 238.464844 759.808594 238.332031 758.082031 238.066406 756.355469 C 237.933594 755.164062 237.269531 754.367188 236.074219 754.234375 C 234.21875 754.765625 233.421875 756.222656 233.554688 758.082031 Z M 354.375 765.652344 C 355.039062 764.058594 357.296875 762.332031 354.507812 760.738281 C 353.3125 760.074219 351.71875 760.207031 350.523438 761.003906 C 349.460938 761.667969 349.328125 762.996094 349.726562 764.058594 C 350.523438 766.847656 352.648438 765.785156 354.507812 765.652344 Z M 734.5 783.574219 C 734.367188 781.980469 733.039062 780.386719 731.179688 780.519531 C 729.71875 780.519531 728.789062 781.714844 728.789062 783.308594 C 728.789062 785.167969 730.117188 785.433594 731.84375 785.433594 C 732.90625 785.300781 734.765625 785.566406 734.5 783.574219 Z M 204.476562 785.035156 C 204.34375 783.972656 203.546875 782.910156 202.21875 783.042969 C 199.828125 783.042969 199.828125 784.769531 199.828125 786.496094 C 199.828125 787.691406 200.226562 788.621094 201.6875 788.753906 C 203.28125 787.957031 204.742188 786.894531 204.476562 785.035156 Z M 487.410156 677.890625 C 488.207031 677.757812 489.136719 676.960938 488.738281 676.03125 C 488.074219 674.570312 487.144531 672.84375 485.152344 673.640625 C 484.09375 674.039062 483.296875 674.96875 483.429688 676.164062 C 484.09375 678.289062 485.816406 678.289062 487.410156 677.890625 Z M 238.332031 794.328125 C 236.472656 794.59375 236.472656 795.921875 236.605469 797.382812 C 236.738281 798.578125 237.402344 799.375 238.730469 798.710938 C 239.925781 798.046875 240.855469 797.117188 240.855469 795.65625 C 240.457031 794.328125 239.527344 794.195312 238.332031 794.328125 Z M 208.59375 759.277344 C 207.664062 758.746094 206.335938 760.472656 206.203125 761.933594 C 206.070312 763.527344 207.265625 764.722656 208.460938 765.121094 C 209.519531 765.519531 210.316406 764.324219 210.980469 762.996094 C 210.183594 761.933594 209.652344 759.941406 208.59375 759.277344 Z M 632.664062 668.328125 C 631.601562 667.796875 630.40625 668.328125 630.007812 669.257812 C 629.34375 670.585938 630.273438 670.984375 631.46875 671.117188 C 632.53125 671.117188 633.59375 671.382812 634.125 669.921875 C 633.726562 669.390625 633.328125 668.59375 632.664062 668.328125 Z M 630.273438 732.324219 C 630.007812 731.128906 628.679688 729.9375 627.085938 730.332031 C 625.890625 730.597656 625.625 731.792969 625.625 732.988281 C 625.625 734.183594 626.023438 735.113281 627.617188 734.582031 C 628.28125 733.519531 630.671875 734.050781 630.273438 732.324219 Z M 726.398438 787.425781 C 725.335938 787.160156 724.140625 787.558594 723.875 788.753906 C 723.609375 790.082031 724.539062 790.613281 725.734375 790.746094 C 726.796875 790.746094 727.859375 790.878906 728.390625 789.683594 C 728.257812 788.488281 727.460938 787.691406 726.398438 787.425781 Z M 191.066406 758.480469 C 190.800781 759.410156 191.332031 760.207031 192.128906 760.472656 C 193.324219 760.738281 194.121094 759.941406 194.652344 758.878906 C 195.183594 757.683594 194.519531 756.753906 193.855469 755.957031 C 192.394531 756.089844 191.464844 757.019531 191.066406 758.480469 Z M 742.332031 792.605469 C 741.269531 792.472656 740.871094 793.265625 740.738281 794.0625 C 740.605469 795.390625 741.269531 796.054688 742.597656 796.054688 C 743.527344 796.054688 744.722656 796.320312 745.253906 794.992188 C 744.722656 793.796875 743.925781 792.738281 742.332031 792.605469 Z M 284.800781 755.824219 C 284.273438 755.824219 283.742188 755.957031 283.210938 756.089844 C 284.007812 756.621094 284.667969 757.152344 285.464844 757.550781 C 285.996094 757.816406 286.261719 757.683594 286.394531 757.019531 C 286.394531 756.089844 285.730469 755.824219 284.800781 755.824219 Z M 440.011719 778 C 439.613281 778.132812 439.347656 778.796875 439.347656 779.328125 C 439.347656 780.125 439.878906 780.257812 440.410156 779.59375 C 440.808594 779.195312 441.074219 778.796875 441.472656 778.398438 C 440.941406 778.132812 440.277344 777.867188 440.011719 778 Z M 440.011719 778 " fill-opacity="1" fill-rule="nonzero"/></g></svg>